<?xml version="1.0" encoding="iso-8859-1"?>
<!-- Generator: Adobe Illustrator 23.0.3, SVG Export Plug-In . SVG Version: 6.00 Build 0)  -->
<svg version="1.1" xmlns="http://www.w3.org/2000/svg" xmlns:xlink="http://www.w3.org/1999/xlink" x="0px" y="0px"
	 viewBox="0 0 48 48" style="enable-background:new 0 0 48 48;" xml:space="preserve">
<g id="Layer_10" style="display:none;">
	<g style="display:inline;opacity:0.05;">
		<g>
			<path d="M24,8c9.925,0,18,8.075,18,18s-8.075,18-18,18S6,35.925,6,26S14.075,8,24,8 M24,6C12.954,6,4,14.954,4,26s8.954,20,20,20
				s20-8.954,20-20S35.046,6,24,6L24,6z"/>
		</g>
		<g>
			<rect x="7" y="9" style="fill:#FFFFFF;" width="34" height="34"/>
			<path d="M40,10v32H8V10H40 M42,8H6v36h36V8L42,8z"/>
		</g>
	</g>
</g>
<g id="filled">
</g>
<g id="outlined">
</g>
<g id="rounded">
</g>
<g id="two_x5F_tone">
</g>
<g id="sharp">
</g>
<g id="win10">
</g>
<g id="ios_x5F_out">
</g>
<g id="ios_x5F_filled">
</g>
<g id="color">
	<path style="fill:#E040FB;" d="M6,10c0-2.209,1.791-4,4-4h28c2.209,0,4,1.791,4,4v28c0,2.209-1.791,4-4,4H10c-2.209,0-4-1.791-4-4
		V10z"/>
	<path style="fill:#020F16;" d="M9,9v30h30V9H9z M21.016,19.174h-2.002v4.434h1.973c0.547,0,0.97-0.179,1.27-0.537
		s0.449-0.879,0.449-1.563c0-0.71-0.153-1.274-0.459-1.694S21.53,19.181,21.016,19.174z M24.365,24.789
		C23.539,25.597,22.393,26,20.928,26h-1.914v5H16V16.781h4.987c1.406,0,2.528,0.437,3.364,1.309s1.255,2.005,1.255,3.398
		S25.192,23.981,24.365,24.789z M33.2,23.1L32.3,23c-0.8,0-1.3,0.3-1.5,1v7H28V20.4h2.6l0.1,1.1c0.4-0.9,1-1.3,1.8-1.3
		c0.3,0,0.6,0,0.8,0.1L33.2,23.1z"/>
</g>
</svg>