<?xml version="1.0" encoding="iso-8859-1"?>
<!-- Generator: Adobe Illustrator 24.1.0, SVG Export Plug-In . SVG Version: 6.00 Build 0)  -->
<svg version="1.1" id="Layer_1" xmlns="http://www.w3.org/2000/svg" xmlns:xlink="http://www.w3.org/1999/xlink" x="0px" y="0px"
	viewBox="0 0 48 48" style="enable-background:new 0 0 48 48;" xml:space="preserve">
<linearGradient id="SVGID_1_" gradientUnits="userSpaceOnUse" x1="37.6722" y1="3.68" x2="37.6722" y2="44.4875">
	<stop  offset="0" style="stop-color:#C391F7"/>
	<stop  offset="1" style="stop-color:#B579F4"/>
</linearGradient>
<path style="fill:url(#SVGID_1_);" d="M44,10.781v26.403c0,1.147-0.653,2.193-1.684,2.696c-2.348,1.144-6.392,3.113-7.05,3.413
	C34.33,43.721,33.742,44,33.007,44s-1.221-0.479-1.559-0.836C31.11,42.806,34,33,34,33V6.23c0,0-3.182-0.666-2.58-1.337
	c0.603-0.671,1.107-0.899,1.736-0.899c0.725,0,1.311,0.323,1.971,0.641c0.468,0.225,4.732,2.271,7.174,3.443
	C43.342,8.577,44,9.627,44,10.781z"/>
<linearGradient id="SVGID_2_" gradientUnits="userSpaceOnUse" x1="4.5984" y1="38.1638" x2="37.9203" y2="4.8419">
	<stop  offset="0.0191" style="stop-color:#742FB6"/>
	<stop  offset="0.32" style="stop-color:#702DB5"/>
	<stop  offset="0.3641" style="stop-color:#5D2596"/>
	<stop  offset="0.3804" style="stop-color:#5D2596"/>
	<stop  offset="0.4798" style="stop-color:#5D2596"/>
	<stop  offset="0.4854" style="stop-color:#60279A"/>
	<stop  offset="0.5167" style="stop-color:#6F2DAB"/>
	<stop  offset="0.5557" style="stop-color:#7932B6"/>
	<stop  offset="0.6104" style="stop-color:#7E34BD"/>
	<stop  offset="0.7625" style="stop-color:#8035BF"/>
	<stop  offset="0.8061" style="stop-color:#7D34BB"/>
	<stop  offset="0.8512" style="stop-color:#7530AE"/>
	<stop  offset="0.8969" style="stop-color:#66299A"/>
	<stop  offset="0.9427" style="stop-color:#52207D"/>
	<stop  offset="0.9628" style="stop-color:#481B6E"/>
</linearGradient>
<path style="fill:url(#SVGID_2_);" d="M4,32c0,1.928,0.261,2.214,2.134,3.028C7.59,35.661,8.17,36,8.559,36
	c0.469,0,0.91-0.323,1.327-0.664S34,15.525,34,15.525V5.546c0-1.198-1.674-1.676-2.467-0.778c0,0-24.791,27.531-25.533,28.244
	S5.767,31.119,4,32z"/>
<linearGradient id="SVGID_3_" gradientUnits="userSpaceOnUse" x1="4.4052" y1="25.4134" x2="35.8862" y2="30.112">
	<stop  offset="0.002" style="stop-color:#9C55D4"/>
	<stop  offset="0.0027" style="stop-color:#9C55D4"/>
	<stop  offset="0.337" style="stop-color:#9751D2"/>
	<stop  offset="0.7374" style="stop-color:#8847CB"/>
	<stop  offset="0.8476" style="stop-color:#8343C8"/>
	<stop  offset="0.8901" style="stop-color:#8042C3"/>
	<stop  offset="0.9379" style="stop-color:#773DB6"/>
	<stop  offset="0.9881" style="stop-color:#68369F"/>
	<stop  offset="1" style="stop-color:#643499"/>
</linearGradient>
<path style="fill:url(#SVGID_3_);" d="M4.62,13.681c0.317-0.152,2.934-1.322,3.256-1.463C8.254,12.053,8.39,12,8.669,12
	c0.308,0,0.518,0.117,1.001,0.514C10.345,13.068,34,32.483,34,32.483v9.759c0,1.675-1.744,1.847-2.728,0.741
	C30.574,42.199,6.389,15.434,6.389,15.434S4,16.641,4,15.587C4,14.166,4.276,13.847,4.62,13.681z"/>
<linearGradient id="SVGID_4_" gradientUnits="userSpaceOnUse" x1="6.5" y1="34.1565" x2="6.5" y2="14.7989">
	<stop  offset="0" style="stop-color:#5C1D9C"/>
	<stop  offset="1" style="stop-color:#561B90"/>
</linearGradient>
<path style="fill:url(#SVGID_4_);" d="M9,18.323v11.412c0,0-2.73,2.999-3.34,3.659C5.118,33.981,4,33.797,4,32.148v-16.72
	c0-1.251,1.131-1.378,2.098-0.323C6.273,15.296,9,18.323,9,18.323z"/>
</svg>